/* XPM */
static char *ca98c5a0b14b4acabe0333d14d2630b7989VEOyY997UdnT0[] = {
/* columns rows colors chars-per-pixel */
"50 50 96 2 ",
"   c #071500",
".  c #0B1B00",
"X  c #0F2300",
"o  c #142500",
"O  c #182702",
"+  c #162A00",
"@  c #1C2C01",
"#  c #102408",
"$  c #1E2C08",
"%  c #1E3200",
"&  c #1B310D",
"*  c #142A13",
"=  c #1E3616",
"-  c #202F05",
";  c #212F0B",
":  c #233403",
">  c #283606",
",  c #263904",
"<  c #2A3C05",
"1  c #25340A",
"2  c #28370C",
"3  c #263A0C",
"4  c #2C3C0B",
"5  c #283710",
"6  c #263810",
"7  c #2D3D11",
"8  c #2B361C",
"9  c #303F16",
"0  c #313E1B",
"q  c #2D4106",
"w  c #2E410B",
"e  c #334507",
"r  c #32440D",
"t  c #36490E",
"y  c #3A4C0E",
"u  c #2E4213",
"i  c #2F4419",
"p  c #334413",
"a  c #394716",
"s  c #364912",
"d  c #3A4B15",
"f  c #35451A",
"g  c #38461B",
"h  c #364A1A",
"j  c #3B4C1B",
"k  c #3E5114",
"l  c #3E511B",
"z  c #364422",
"x  c #3D4D22",
"c  c #3F4D29",
"v  c #3E5222",
"b  c #415317",
"n  c #42531D",
"m  c #42591F",
"M  c #495C1E",
"N  c #4D611D",
"B  c #404F25",
"V  c #404D29",
"C  c #435423",
"Z  c #465923",
"A  c #495B25",
"S  c #45552A",
"D  c #48572C",
"F  c #465A2A",
"G  c #4B5C2B",
"H  c #4D5D32",
"J  c #505F35",
"K  c #515F3A",
"L  c #4E6126",
"P  c #4E612C",
"I  c #526425",
"U  c #52632D",
"Y  c #56692C",
"T  c #596B2F",
"R  c #4E6133",
"E  c #536433",
"W  c #566833",
"Q  c #596A35",
"!  c #54643A",
"~  c #58673E",
"^  c #56693A",
"/  c #5B6C3B",
"(  c #5F7137",
")  c #5E703B",
"_  c #62733D",
"`  c #5C6C42",
"'  c #5F7244",
"]  c #606F44",
"[  c #606F48",
"{  c #637344",
"}  c #677843",
"|  c #697A46",
" . c #66754B",
".. c #62784A",
"X. c #6A7A4B",
"o. c #6F804C",
/* pixels */
"Z Z P Q P n g C j P | 4 a Q 4 d 4 @ g 9 7 C a ! D a - . O D X.` ` D V K { / n : d Z U a Z E p @ # * ",
"E D C j 4 - 9 G j E ) p d U r a A j G j f n j ! D g 5 1 1 f V f 5 1 ; 1 9 j C G n n n d A A > o = 6 ",
"9 > 4 f a f a A n Q U d d n r p 7 4 f 7 p B J ] x f a x f 0 g f 0 0 f 0 9 p a n b r r d G C @ o i h ",
"- : 7 A G n a n n Q n a n r r r a A j p j D / P 9 9 B B f f V D H D C Z Z B f < r < r a G A > > h h ",
"C C C A g > 7 C n Q a a n < t p n E Z a B ! / f 9 j D g 1 2 g f f 2 - 1 p n n l 4 r n a P E B n s w ",
"D f > p j j n D C W a t n e a a 4 a d p B _ J f a D J B - 1 5 1 2 1 1 1 2 p a j r a C C U / D G h i ",
"4 @ - g J P C n A E n e n a b n C d A Z P Q g a j C H D 9 2 9 f x x C D C a r < b d m G / Q g V c z ",
"- f J / B : - 7 A W C 7 n M n A A > C U E G 4 D C g C D a 2 9 n g g g D G E C p Z a n E { J 4 g z 8 ",
"2 S D ! x O p C Q A n C A d e M r n p Q E 4 n C C j p a 3 2 x u > O 7 Z B < r Q j n / P ! B 2 S 0 8 ",
"D 9 > f x C Z ! ) W n t y y r d A E j / U a A B f g f a 7 > f 7 j p a B a : : r a D } ] j g f g c c ",
"V O 4 g J / a j A A a - < b M M d Y j Y n n Z n > f p a x a Z A E J P G n d p a C U / { > 1 x g G G ",
"- 5 H ! J D 4 > Q Q b : < b y t @ A d P 4 a d d 4 n 9 p S C G ! C D C G G A Y Q } W x G f o g J A P ",
"2 K ! S 5 4 A C _ W n 4 b b y y a U k A < n a p f C 9 p j p 7 9 @ : - a n p U _ } W 7 : J 1 B ! A L ",
"D [ c 1 o 1 ! P W C r y M M b M Y U r n d U n d p C a j j > : o @ 4 - d a < L / C P j o  .B S B L U ",
"K D 5 - 9 C D a } U t e b b e e Q d r n C U j n r n x A a 4 f 4 n G d A A n _ ( > a G > ` H B f S S ",
"K ; $ 8 ! X.B 9 _ G < : e y e y I d n A U d < d n n A A r 4 A C D ] Z A A U X.Q : > ! S J B 0 z z h ",
"c ; $ z H B a B W U b < q y M N n l L L l l l t l k l l s w w , 2 p x 4 A X.G j B 4 Q J O ] 0 z 9 p ",
"O 7 V c 1 @ 5 A A M n e , q k k e l Z s q l m r w w l L m l t % @ - j g E / j C P B J S O K 0 S p 7 ",
"  0 K f o o 7 A n n Z n < < y y t l l w % s l w w w m Y L m s % 2 7 D G / G : C Q f B G X x V x a p ",
"@ 0 g f f a a p a r M Z q q d t l s s s w u l l h l R R v h k u C C H E ! j O n J @ f ] . 5 ` 5 j d ",
"g 9 p B E P j > a < d C p r r w h 3 , s h l v l l F ^ R h k l h g g Z a H C o d n - 4 J > 0 K g j j ",
"x d C G J n f a j d a b j r > r u t u u u v v 3 l L ^ R h h F F p a g 9 P A o 4 p C 4 9 C x x ~ F C ",
"C j n Z C d a n j n r p C r > g h h v h i l v u v R ^ v h h R F j j f > E A o p b C a 2 c j f H G G ",
"P n 4 9 j n n j f j 4 4 n 4 @ C j i h G v x v R ^ R R h i v R R C a : @ A C @ G A : B j - f V 5 Z C ",
"_ Q P a e Q C n 4 a p O 1 - X C v F v v u u i 3 ' v w ` i P v h f j a 4 A < : < n U a g n 0 B 5 i f ",
"M Z P a < C a C r 9 4 @ 7 p > D v h 3 % & h R F ' v i ^ i v h i 4 f > > d s : a n r G n 4 0 5 x 4 p ",
"n A _ P n n C Q P n j j n C 7 r w i l m P W R m R m v R s v h s 4 a : > t A r d n > D D 9 9 9 n f f ",
"a n Q P A d n C j 4 p C C C r - % i m h i l m R h h v m h h l h p n r r p Z b n n C p C A a B 9 j x ",
"p p g P ! G B a C r d A l h s % , s h % , h m ) u u v l h s l t a j n 7 d d n d e ( a a J B B 0 a p ",
"a j 4 J Q _ U C P n j C d s l w s l Z s F ( l m t t m t l % w w d p n < d < n d : C G > b D > B 9 f ",
"f C - G j / G D < > % r r w l l l l l % l Y w m u q m u v % % , m a a d y a M M r r U a 9 A 0 B n g ",
"a E > P > U G W Z A p n l < w , w t k q m R q m t q l w L + % % Q C d Z p M A Y U b j Q C C } g B B ",
"a b n C < T p U A n b a n a - - q q , t L L q m m q h m v # % 3 m u v l n Q U M L A n T U } U A K Q ",
"d < b C : U t A A b 4 a b b t e q m t m m m 3 m m = m m v = i 3 + + v l p A b e r Y b n I L a W W W ",
"d : b C : L d d W n n n r a M n , m m m m w h m i i h i v ` v F % + u u r a r r y A < e C L r C a a ",
"n < M U < A b < U A T U 4 < n n , m w t L w m m + m h & z ..i R R & % h C r r n U r < d d C G t : > ",
"n < n U 4 M M 4 n y A U y 4 b r , l u u v w P h % h v = = R i h ! h 7 Z P a a m L a M C 4 a P C p f ",
"y < b C a n A y n 4 p M C M d @ q l l m v % v h i + h F + i ^ = f H B 7 7 a A A C A n p C j n G p f ",
"4 4 b n y a M d A b 4 b A Z r @ u s h R l i p p m + = R = & o.i @ ` c o @ a E C n j g 4 C B B B 7 p ",
"t b b a a e a a b a e 4 b d < r h % w P v v 3 & m v + h F + v v o H x 1 p C D 7 d - G C 9 4 ~ S v x ",
"y < M n b r < n b 7 b < a < b A v h 1 1 v ! x : : R c . ] 1 g S - B B O f p a n A p p A 2 x D J D C ",
"b 4 4 a 4 t < n y 4 a < e : t n F G p % 7 H ~ h 1 ! g 3 D g f J @ C D r A j r 4 : - 7 9 7 n ` ] v v ",
"n a < M n n t r < < e < b a r : s ! D 4 o 4 ^ g i H S v g D 9 U f A C 4 j a r < b A J 9 C B ~ K i p ",
"r a - A n b < - b 4 : < b A n < @ C E G + X D v v h G j h a 7 n j D j : > r r a < A n > S J J H w i ",
"n M 4 A n b n a n b : @ - d M n : : C } C : Z E C : a a 4 b > 4 4 d d p r r r t < Z 4 > A ] D B f x ",
"n M G T U n n A r n a e O < a A j @ > E G a a C C 4 : A > C 4 9 < r r n y n d n M Q d n J { g 9 l v ",
"4 4 Q A A e 4 e 4 n M A r p 4 n U 4 r d C A < > U d , U b n 0 b a r < n y M n b e a a C Q G a B x j ",
"b b _ b M < 4 a A M a M n N n N A n U r j / r p Y n a n A < C b M y < M b A y e < < C P / a p C v l ",
"I W J M C a A n b C r e y I I Y b I U A I Y E Y Y Q E b G n n n A n d d r d n t C n C Q C C n C 4 B ",
"A W E M A b G n 7 b b b e N N I N Y I I T T Y ( ( _ ( M ( G G U Y n a 4 < t A C A M n W n C B D > a "
};
