/* XPM */
static char *_9d2f390e5514722e87171609642d0cb8JaZRnEcASHPpSTM[] = {
/* columns rows colors chars-per-pixel */
"45 50 134 2 ",
"   c None",
".  c #3B3A3D",
"X  c #434144",
"o  c #474649",
"O  c #515153",
"+  c #57565A",
"@  c #58575B",
"#  c #5B5A5D",
"$  c #7E4D4F",
"%  c #5E5D61",
"&  c #636265",
"*  c #666568",
"=  c #6B6B6D",
"-  c #6E6D70",
";  c #706F74",
":  c #737274",
">  c #767579",
",  c #78777B",
"<  c #7A797B",
"1  c #990508",
"2  c #97080D",
"3  c #9A0A0D",
"4  c #82191B",
"5  c #8E1C1F",
"6  c #A00A0D",
"7  c #881E21",
"8  c #8D2B2D",
"9  c #912629",
"0  c #893639",
"q  c #9B3E40",
"w  c #9A4043",
"e  c #A04C4E",
"r  c #906A6B",
"t  c #B96B6C",
"y  c #7D7C81",
"u  c #807F80",
"i  c #838286",
"p  c #8B8487",
"a  c #868589",
"s  c #88878B",
"d  c #87888A",
"f  c #8B8A8D",
"g  c #9E8384",
"h  c #918D8D",
"j  c #8E8D92",
"k  c #918E92",
"l  c #9E8F90",
"z  c #939295",
"x  c #9C9294",
"c  c #959499",
"v  c #98979D",
"b  c #9B9A9C",
"n  c #A48485",
"m  c #A1999C",
"M  c #9D9CA1",
"N  c #A19FA3",
"B  c #A3A2A4",
"V  c #AEA1A3",
"C  c #A5A5AA",
"Z  c #A9A7AC",
"A  c #AAAAAC",
"S  c #B2ACAE",
"D  c #BAABAC",
"F  c #ADACB2",
"G  c #B0AFB5",
"H  c #BBAFB0",
"J  c #B2B2B5",
"K  c #B8B2B3",
"L  c #B3B2B8",
"P  c #BBBBBB",
"I  c #CE8F90",
"U  c #D78E91",
"Y  c #C1A4A5",
"T  c #DFA3A5",
"R  c #DEABAC",
"E  c #C1B3B4",
"W  c #C5B6B8",
"Q  c #C3BEBE",
"!  c #CABABB",
"~  c #D3BBBC",
"^  c #E8A6A8",
"/  c #E8A8AB",
"(  c #BFBEC0",
")  c #D0BFC0",
"_  c #C4C4C4",
"`  c #C8C3C3",
"'  c #C7C7C8",
"]  c #C7C8C9",
"[  c #CCCCCD",
"{  c #D5C2C3",
"}  c #D9C6C7",
"|  c #DFCBCC",
" . c #CFCFD0",
".. c #D4D4D4",
"X. c #D6D5D8",
"o. c #DCDCDC",
"O. c #E6D0D2",
"+. c #ECD6D6",
"@. c #EAD4D4",
"#. c #EFD9D8",
"$. c #F7DFDF",
"%. c gray88",
"&. c #E3E1E1",
"*. c #E2E2E2",
"=. c #E4E4E4",
"-. c #E4E5E5",
";. c #E6E6E6",
":. c #E7E6E6",
">. c #E3E3E3",
",. c #E8E6E7",
"<. c #E8E7E7",
"1. c gray91",
"2. c gray92",
"3. c #EBECEC",
"4. c #ECECEC",
"5. c #F9E0E0",
"6. c #F8E0E1",
"7. c #F9E1E1",
"8. c #FDE2E3",
"9. c #FDE5E5",
"0. c gray94",
"q. c #F1F1F1",
"w. c #F2F1F1",
"e. c #F3F3F3",
"r. c gray97",
"t. c #F4F4F4",
"y. c #F8F8F8",
"u. c gray98",
"i. c gray99",
"p. c #FCFDFD",
"a. c #FDFDFD",
"s. c #FEFEFE",
"d. c white",
"f. c #FDFDFD",
/* pixels */
"                            %                                                             ",
"                  O         > z &                                                         ",
"                  # i *       z F i                                                       ",
"                    > k k >     v L B y                                                   ",
"                      k W V k < + j L L M ;                                               ",
"                        m O.} S v s j v F L v &                                           ",
"                        % b @.6.| H M k f c Z F a                                         ",
"                          O h { $.8.O.W N c j v F M #                                     ",
"                              > m { $.9.#.! N z f Z C %                                   ",
"                                % : x ! @.6.+.D c i M j                                   ",
"                                      : p m D ! N s ; o @                                 ",
"                                            : < p f v u #                                 ",
"                                                % M M y > X                               ",
"                                        w.<.    j L M j v z                               ",
"                                        X.X.[ & v L F M 2.P a                             ",
"                                      ,.o.P J c M z F z u.[ C %                           ",
"                                        z  .%.X.' A c - (  .A >                           ",
"                                      < >.a.w.%. .' P :   b A b                           ",
"                                      * -.d.d.3.g r b A b d C b                           ",
"                                        J d.d.o.0 2 7 w f j d O                           ",
"                                        b 0.i.~ t 3 6 3 4 l B h h                         ",
"                          - , i s s u y * b %.R I 8 3 3 q _ ` b b b ..b ] ;.e.w.'         ",
"                  d : j Z F L L L L L L G j Q / ^ w 3 5 ) ;.Q ..[ A <.[ >.*.q.a.d._       ",
"                h ' C c B B M B C C F L L Z K ^ U 9 e Y ..o.q.y._ B a.A P a.e.y.d.P       ",
"                ..d. .< d           & y z M B D n n B ] _ J A f d 2.>.' Q %.%.y.d.o.      ",
"                ' d.t.Q                     # d B A B C C d N o.J ..<...o.X.a.y.o...      ",
"                B u.d.r.P                       & k F L L J J [ r._ X.-.( A X.o.' F       ",
"                N *.d.d.e.A                         - M L J J J X.r._ 2.K A ..o.J         ",
"                S o.d.i.d.e.P                           d G L L L 2.4.M j C P A           ",
"                m t.0.-.u.r.K                             > F L F ( d.P F N <             ",
"                  A P -.-.*.                              y F L L A 2.X.i *               ",
"                    B b ] J                               j L L J C [ -.                  ",
"                                      . % : =             v L L L F ( 2.                  ",
"                                    < P P A b , y         B L L L F P 4.                  ",
"                                       .d.r.o.i b f     * j Z L L F L 0.                  ",
"                                      J r.d.d.2. .B > M G G G L L L ( 2.                  ",
"                                      [ [ d.d.d.u.Z M Z L L L L L F G L f B Z c           ",
"                                    d.%.z w.r.d.d.( Z G L L L F Z c j Z L L L B           ",
"                          b ' o.N S d.a.[ o...o.d.o.Z L G L L M y M F L F Z L j           ",
"                      < P o.a.u.P s 2.d.r.[ ' [ w.0.A L L L G F F L L F M F Z %           ",
"                    A ' A B w.<.C v J u.d.d.*.P 2.a.L A L L L L L L Z k A L f z G z       ",
"    N _ ] A f - > ..u.P A o.a.' M L B  .d.d.d.o.P d.o.b L L L L ( C a C L z < o.4.X.B     ",
"  ..0.i.' B N o.&.2.d.u.u.u.[ A L L F v o.d.d.*.z ' i.' b F F F a y Z L N f B C d.a.u...  ",
"J [ %.i.u.r.r.X.P _ r.d.2.L M z C L L A b J A B A N J o.[ L A s > C L L M F L B a.u.X.o.Q ",
"k ..d.a.w.r.0.B B P u.o.b f     O c L L F F F L L F j = :     > Z ( F G J L A A a.d.i.X.b ",
"N r.a.&.o.u.d.r.r.a.a.A f           z L L L L Z f &         : F L G ( G J L c ..d.d.a.i.z ",
": >.2.o.d.d.d.d.d.d.-.*               j C M f             : A J F ( F F B A ..a.d.d.d.i.b ",
"    z >.d.d.d.d.d.u.A                                     a L J F C v j N B k B P o.;.'   ",
"      P r.a.d.d.t.P                                       f B B M c v s                   ",
"        f J P A f                                         i k z                           "
};
