/* XPM */
static char *_60f4a9d7c40411ea349f44b26d07c3dpLXh4hhAbQgXziOy[] = {
/* columns rows colors chars-per-pixel */
"50 50 74 1 ",
"  c None",
". c #0D1216",
"X c #0C1318",
"o c #57351C",
"O c #644021",
"+ c #6C4827",
"@ c #64442A",
"# c #7A4A24",
"$ c #7C522C",
"% c #6F4B32",
"& c #466734",
"* c #456B33",
"= c #496B32",
"- c #486938",
"; c #4E7535",
": c #507037",
"> c #567C35",
", c #547939",
"< c #5B7D3C",
"1 c #854F25",
"2 c #9B5F2C",
"3 c #A05E29",
"4 c #8E6A34",
"5 c #A6642B",
"6 c #BE6F30",
"7 c #C9752F",
"8 c #D9732E",
"9 c #DD7C2F",
"0 c #C06F30",
"q c #C77435",
"w c #CA7331",
"e c #D77136",
"r c #DB7433",
"t c #D37A33",
"y c #DE7D32",
"u c #D5733C",
"i c #DE7C3D",
"p c #E6752C",
"a c #E8732E",
"s c #E77A2E",
"d c #EA7C2E",
"f c #E47433",
"g c #E97731",
"h c #E47D33",
"j c #E97D32",
"k c #E17439",
"l c #E37A3B",
"z c #CD7647",
"x c #DC7C42",
"c c #5D8434",
"v c #5E8A31",
"b c #5D823A",
"n c #608735",
"m c #628A34",
"M c #62873A",
"N c #668A3B",
"B c #698B3C",
"V c #678D40",
"C c #6A8C41",
"Z c #678448",
"A c #6D8A48",
"S c #DB822F",
"D c #DD8232",
"F c #DF8638",
"G c #DF8838",
"H c #E9832F",
"J c #E6882F",
"K c #E48433",
"L c #E98632",
"P c #E78833",
"I c #E98833",
"U c #E48738",
"Y c #E78A39",
"T c #E89752",
/* pixels */
"                                                  ",
"                                                  ",
"                                                  ",
"                                                  ",
"                                                  ",
"                                                  ",
"                  BNC       NBA                   ",
"                  NmmB     BmmB                   ",
"                   NmmB   mmmN                    ",
"                   <vmmm BmmN                     ",
"                   :>ccb=bmcZ                     ",
"                  Bc;*;>*bM;>NmNB                 ",
"                 BmmMc>*&*=>vmmmmB                ",
"                 Nmm CMc>*,MmB Cmm                ",
"                        :*                        ",
"                        44z                       ",
"                     xdasssfi                     ",
"                    lhLILKhKLl                    ",
"                   xhKKILKDPjUl                   ",
"                  lyyKKILLLPLIhx                  ",
"                  aLLLPILPLYIUy8                  ",
"                  fK2#5LILL512Kf                  ",
"                  fKo.$LIPLO.+Kf                  ",
"                  fK#%TLLLL1@ hf                  ",
"                  aKDUULLPPDGYLf                  ",
"                  fLIILLLHLKIPKr                  ",
"                  fhKLtwKKqtIP9r                  ",
"                  uySKUw607LLHLf                  ",
"                   jLLIIILLPLHd                   ",
"                   pdIILPSSyKhf                   ",
"                   adPLLLKKPKLf                   ",
"                   kKDKKLLLLJjl                   ",
"                    ryKKPLHIjl                    ",
"                    fjILHLPPsf                    ",
"                    fdILLLDD9u                    ",
"                     lHIPLPKl                     ",
"                      gILLLg                      ",
"                      fDKPLh                      ",
"                      fKKKLd                      ",
"                       jLLh                       ",
"                       pLSr                       ",
"                       ldji                       ",
"                        aa                        ",
"                        kr                        ",
"                                                  ",
"                                                  ",
"                                                  ",
"                                                  ",
"                                                  ",
"                                                  "
};
