/* XPM */
static char *_26ffc5936fb4182fa10be9ac126fbbb4W7q4zoVpe7Cofs9[] = {
/* columns rows colors chars-per-pixel */
"50 54 218 2 ",
"   c None",
".  c #181212",
"X  c #2B282C",
"o  c #382D23",
"O  c #3A342F",
"+  c #3B3734",
"@  c #302A32",
"#  c #57381E",
"$  c #4C3728",
"%  c #5A3922",
"&  c #653A21",
"*  c #584C3B",
"=  c #674327",
"-  c #7A4E2C",
";  c #73472A",
":  c #694B31",
">  c #6B543A",
",  c #745334",
"<  c #77583A",
"1  c #3C3946",
"2  c #474646",
"3  c #524A49",
"4  c #58595E",
"5  c #6A5847",
"6  c #775C49",
"7  c #635E58",
"8  c #7B4B50",
"9  c #6A635A",
"0  c #796957",
"q  c #7C715C",
"w  c #565A6D",
"e  c #685967",
"r  c #7D5D65",
"t  c #676867",
"y  c #766B62",
"u  c #7C7466",
"i  c #696C75",
"p  c #787877",
"a  c #7F6E73",
"s  c #84532E",
"d  c #8A552D",
"f  c #825433",
"g  c #885A38",
"h  c #995D32",
"j  c #905A31",
"k  c #824E29",
"l  c #89623E",
"z  c #9A6134",
"x  c #98643A",
"c  c #AA6636",
"v  c #A46B3D",
"b  c #AB6B3A",
"n  c #A76636",
"m  c #B46D39",
"M  c #BA6F39",
"N  c #B16936",
"B  c #B9733D",
"V  c #C3753D",
"C  c #8A5A44",
"Z  c #965D46",
"A  c #866543",
"S  c #8C6846",
"D  c #986948",
"F  c #9B744D",
"G  c #9A714A",
"H  c #866C55",
"J  c #887257",
"K  c #9B7A5B",
"L  c #977756",
"P  c #9E6150",
"I  c #A46C41",
"U  c #A9684A",
"Y  c #A37246",
"T  c #AB7141",
"R  c #A3764A",
"E  c #AD7C4D",
"W  c #AA784A",
"Q  c #B37C4C",
"!  c #B87946",
"~  c #A96655",
"^  c #A57B52",
"/  c #AB7C52",
"(  c #AB765C",
")  c #B27E57",
"_  c #B26B5F",
"`  c #857767",
"'  c #8C7D6E",
"]  c #B66E68",
"[  c #B8726A",
"{  c #B97875",
"}  c #C57C43",
"|  c #C87E43",
" . c #C87774",
".. c #D27C7C",
"X. c #99825F",
"o. c #BA824F",
"O. c #AF845B",
"+. c #A8855A",
"@. c #B38152",
"#. c #BA8653",
"$. c #BC8956",
"%. c #B48759",
"&. c #B3895D",
"*. c #BD8B5A",
"=. c #8C816B",
"-. c #9D8667",
";. c #898377",
":. c #978572",
">. c #BA8C68",
",. c #B69666",
"<. c #BE926D",
"1. c #BF9063",
"2. c #B98C77",
"3. c #AB987A",
"4. c #B59B76",
"5. c #AC8E69",
"6. c #BAA27B",
"7. c #C98146",
"8. c #CB844B",
"9. c #C8864E",
"0. c #C38B55",
"q. c #CC8E56",
"w. c #C38D59",
"e. c #D18E54",
"r. c #CC935B",
"t. c #C6915C",
"y. c #D3955B",
"u. c #D7995E",
"i. c #D9995D",
"p. c #D49156",
"a. c #C28E61",
"s. c #C59564",
"d. c #CC9661",
"f. c #CB9A69",
"g. c #C99968",
"h. c #D59B62",
"j. c #D99D63",
"k. c #D29E68",
"l. c #C5967B",
"z. c #C3A26E",
"x. c #DAA067",
"c. c #DAA36C",
"v. c #D7A16A",
"b. c #C8A375",
"n. c #DCA670",
"m. c #DCA972",
"M. c #D5A574",
"N. c #D8B67D",
"B. c #7A7C8A",
"V. c #D67E81",
"C. c #828488",
"Z. c #928E88",
"A. c #9B9385",
"S. c #888D96",
"D. c #929496",
"F. c #A79A88",
"G. c #B79A8E",
"H. c #AEA089",
"J. c #B6A385",
"K. c #B5AA94",
"L. c #B6A994",
"P. c #BCB297",
"I. c #A7AAAA",
"U. c #BAB2A4",
"Y. c #A9ABB3",
"T. c #B9BCBC",
"R. c #B1ACB1",
"E. c #DD8688",
"W. c #CD9B94",
"Q. c #D39E99",
"!. c #D99293",
"~. c #CF938F",
"^. c #E68B8B",
"/. c #E88F92",
"(. c #E99497",
"). c #C7AC88",
"_. c #CDB589",
"`. c #D6B98A",
"'. c #CAB598",
"]. c #D1B898",
"[. c #E89EA0",
"{. c #C7BBA6",
"}. c #E9A6A8",
"|. c #ECAFB1",
" X c #EEB0B2",
".X c #DCC499",
"XX c #E6C698",
"oX c #DCCBAD",
"OX c #D6C5A9",
"+X c #D9CAB1",
"@X c #CEC0A0",
"#X c #E3CDA7",
"$X c #EAD6AD",
"%X c #E4D4B5",
"&X c #ECDDBC",
"*X c #E7D6B9",
"=X c #F2DEBE",
"-X c #F2DDB0",
";X c #F3E4BE",
":X c #BCBFC7",
">X c #BEC1C6",
",X c #D7D8D8",
"<X c #D6D4CF",
"1X c #ECDDC4",
"2X c #E6D9C2",
"3X c #F1DFC1",
"4X c #F5E3C4",
"5X c #F6E8C5",
"6X c #F5E6CB",
"7X c #F8E7CB",
"8X c #F7EACD",
"9X c #F9E9CE",
"0X c #F8EAC6",
"qX c #F7EBD1",
"wX c #F8EED7",
"eX c #EEE0C0",
"rX c #E5E5E5",
"tX c #EBEAEA",
/* pixels */
"                                                                                                    ",
"                                                                                                    ",
"                                                                                                    ",
"                                                      ;.;.                                          ",
"                                                  P.%X6X6X%XP.                                      ",
"                                                3.%X5XqX8X5X0XOXq q                                 ",
"                                              o u #X5X8XwX8X5X5XoXL.          g F S                 ",
"                                              9 %X0X5X5XqXwX8X0X5X&X=.    S @.w.r.u.0.,             ",
"                                              K.qX;X5X5X5X5X8X&X*X8XA.. A @.Q Q E ^ #.#.            ",
"                                              @X$XoXqX5X5X$X4.+.&.).@XX A ^ >.a.d.h.#.Y -           ",
"                                          =   L._.@XqXqX-X+.x @.@.%.3.G r.( ~.Q.2.s.x.t.,           ",
"                                        G q.b X.4.6.0X;XN.x v W r.*.G u.j.@.] ^.}.W.>.x./           ",
"                                        o.i.q.x > > .X-X,.d ; # < Y #.j.h.W g  .^.}.~.d.d.          ",
"                                        #.i.u.x 5 3 6 ,.+.: $ . O > r.i.r.s ; U V.(.}.<.v.<         ",
"                                        @.i.0.F F.i % N h ` p * q F i.j.#.# # h  ./.|.2.v.S         ",
"                                        x i.F z.oXU.L ! ! {.<XI.6.#.j.j./   ; g ] /.|.2.v.A         ",
"                                        = r.R ,.XXXXz.%.].OXoX4X`.w.h.j.E   Z Z _ /. X2.v.<         ",
"                                          R r.%.z.N.z.6.{.oX3X4X4.t.h.j.g ; ] P ] (.}.a.f.<         ",
"                                          : q.p.! @.,.).{.=X-XH.L y.j.h.l U V.Z  .}.Q.f.s.          ",
"                                            R i.7.M 6 Z.:._.b.0 5.h.j.h.C ..{ C ^.}.2.M./           ",
"                                              0.} b $ 2 :.#XJ.$ ^ j.j.d.] V.C P (.Q.g.f.>           ",
"                                              x b : $ F.4XoX7 o w.h.j.t.] ~ k  .}.2.v.F             ",
"                                              0 F.4 F.4XoX7 X A y.0.j.O.P n C ^.~.g.%.              ",
"                                          C.T.rX<X7 oX+Xy 4 * w.! q.h.P U d ~ !.<.s.                ",
"                                        t <XtXtXY.1 7 2 B.D.:.d.7.h.^ P h # ] l.f.A                 ",
"                                        p ,X:XR.{ 8 e Y.rXC.G.} e.@.< v # ; { <.O.                  ",
"                                          Y.S.w w e ~.rXrXi D } Y $ s s   g [ 1.<                   ",
"                                          p D.a 8 r B.Y.tXC.; h o   s -   f ( O.                    ",
"                                          2 -.,.-.' Z.I.:XR.i +           - @.F                     ",
"                            = W 0.#.W D g $ X.N.XX&XOXL.A.I.R.              Q A                     ",
"                            n u.i.u.q.0.q.w.^ +.6.3X7X4Xb.H t               g <                     ",
"                            j p.i.i.y.r.#.0.u.y.@.4.OX2Xb.:                                         ",
"                              ! u.u.u.u.u.0.0.j.i.y.&.3.&.=       5 J                               ",
"                              s p.u.u.u.u.h.#.r.j.x.x.d.F @     -..X*X.XL.'                         ",
"                                v u.u.u.u.j.0.$.j.j.x.x.x.%.o * `.4X8X8X9XoX                        ",
"                                & 9.i.i.h.j.0.Q j.x.x.x.c.c.*.6 .X7X7X7X6X7XK.                      ",
"                                  - y.j.h.h.r.! e.x.x.v.c.c.c.H ` 7X7X7X7X9X1X`                     ",
"                            s h c h b j.j.j.r.T } y.x.x.c.c.c.s.1 K.7X7X7X9X+XJ                     ",
"                        d c c N m M h #.j.j.d.v } 7.y.c.c.c.c.c.3 4 2X7X6X3X].                      ",
"                    & c M N M V M b c h y.j.h.T } | 7.u.c.c.n.n.5 w U.6X3XXX).                      ",
"                  = M 8.8.e.e.e.8.} N h T j.j.W | | | 8.h.c.c.m.5 i L.XXXX4.`                       ",
"                  v p.u.h.h.i.h.h.p.| m j #.c.$.b | | 7.| y.c.m.7 S.F.`.).5                         ",
"                  ^ h.i.u.u.i.h.h.j.h.8.n g y.k./ v T } 7.7.q.$.3 T.;.0                             ",
"                  H ^ w.r.u.i.j.h.j.j.j.p.T I j.c.d.&.S A D G H ` D.p                               ",
"                      0 H K %.*.t.h.d.k.j.i.v Q c.c.m.f.H Q f.b.'.2X{.Z.                            ",
"                            9 7 0 L K +.&.@.B h 0.c.n.m.<.L o.x.).qX9X{.'                           ",
"                                        y y 0 5 C r.n.n.m.z.K ( '.qX1X{.u                           ",
"                                                  K d.m.m.m.l.'.G.].+XA.                            ",
"                                                    K f.m.m.).3X6XF.5                               ",
"                                                      K s.M.oX9X2X+X                                ",
"                                                        J &.%X9X1X{.                                ",
"                                                            ` H.A.t                                 ",
"                                                                                                    ",
"                                                                                                    "
};
