/* XPM */
static char *_0b76744cafe405edd8bc0200ad6a7a3Vo1UyB6z6Cuc6QHO[] = {
/* columns rows colors chars-per-pixel */
"50 50 245 2 ",
"   c #0E0000",
".  c #140100",
"X  c #1C0100",
"o  c #180B00",
"O  c #230100",
"+  c #2B0300",
"@  c #240B00",
"#  c #2B0B00",
"$  c #320200",
"%  c #340B00",
"&  c #3C0C00",
"*  c #3C0400",
"=  c #241201",
"-  c #2C1401",
";  c #341200",
":  c #3C1401",
">  c #3C1C02",
",  c #361C06",
"<  c #3C220B",
"1  c #392617",
"2  c #450A00",
"3  c #451500",
"4  c #4C1500",
"5  c #441B01",
"6  c #4B1B00",
"7  c #521B00",
"8  c #551802",
"9  c #442203",
"0  c #4C2202",
"q  c #4B2A0C",
"w  c #472709",
"e  c #532401",
"r  c #5C2500",
"t  c #552904",
"y  c #5C2C02",
"u  c #552C0B",
"i  c #572A0B",
"p  c #5A340B",
"a  c #452C14",
"s  c #4B2B14",
"d  c #532D12",
"f  c #5A2912",
"g  c #4D321A",
"h  c #4A3210",
"j  c #5C3413",
"k  c #54351C",
"l  c #593718",
"z  c #662A01",
"x  c #643203",
"c  c #64340C",
"v  c #6B3A0C",
"b  c #6A3606",
"n  c #763A08",
"m  c #633412",
"M  c #6C3B14",
"N  c #653A1D",
"B  c #683917",
"V  c #763D15",
"C  c #692D0D",
"Z  c #4F3422",
"A  c #5A3C23",
"S  c #563B28",
"D  c #493729",
"F  c #683E23",
"G  c #713F23",
"H  c #5D421C",
"J  c #6A4307",
"K  c #78450A",
"L  c #6D421E",
"P  c #694518",
"I  c #74421C",
"U  c #7A441C",
"Y  c #7C4A1B",
"T  c #774715",
"R  c #7A511C",
"E  c #6C4122",
"W  c #654528",
"Q  c #724423",
"!  c #744A23",
"~  c #7B4A23",
"^  c #744B2B",
"/  c #7C4E2B",
"(  c #784527",
")  c #795428",
"_  c #684934",
"`  c #764D34",
"'  c #7D5334",
"]  c #765438",
"[  c #6C5131",
"{  c #5B4128",
"}  c #785B45",
"|  c #6B5642",
" . c #79634A",
".. c #833D0A",
"X. c #88460B",
"o. c #844B1C",
"O. c #8C4C1C",
"+. c #854619",
"@. c #914E1A",
"#. c #8A561C",
"$. c #94571C",
"%. c #92500E",
"&. c #A85B1B",
"*. c #B35D17",
"=. c #AC560D",
"-. c #91631E",
";. c #AB621B",
":. c #824C23",
">. c #874B26",
",. c #835324",
"<. c #8C5224",
"1. c #84542C",
"2. c #8B5A2E",
"3. c #895828",
"4. c #935424",
"5. c #935C24",
"6. c #9B5B23",
"7. c #92562A",
"8. c #935B2B",
"9. c #9B5C2B",
"0. c #9B5523",
"q. c #8C5C34",
"w. c #855836",
"e. c #935D33",
"r. c #965D38",
"t. c #934D22",
"y. c #86602A",
"u. c #9C662C",
"i. c #966429",
"p. c #8A623C",
"a. c #95643C",
"s. c #986738",
"d. c #9E7438",
"f. c #AB642A",
"g. c #A7652A",
"h. c #B86A28",
"j. c #A46B33",
"k. c #AA6B35",
"l. c #A56838",
"z. c #B26D37",
"x. c #AC723D",
"c. c #A77539",
"v. c #B87638",
"b. c #AC722B",
"n. c #A25A20",
"m. c #C5732C",
"M. c #C37A3B",
"N. c #C87A33",
"B. c #D27D37",
"V. c #825C42",
"C. c #8C6141",
"Z. c #886748",
"A. c #986A45",
"S. c #997649",
"D. c #9B7556",
"F. c #8D6D4F",
"G. c #A36E43",
"H. c #A66B46",
"J. c #AB7342",
"K. c #A87749",
"L. c #BB7C44",
"P. c #B47B4B",
"I. c #B57846",
"U. c #A77A55",
"Y. c #B57D53",
"T. c #9A7964",
"R. c #C37E45",
"E. c #B8843B",
"W. c #C8823C",
"Q. c #D98637",
"!. c #E18F3A",
"~. c #BB8345",
"^. c #B9864B",
"/. c #BB8657",
"(. c #AD8154",
"). c #AE8463",
"_. c #BC8A62",
"`. c #B18D69",
"'. c #BB9365",
"]. c #C78748",
"[. c #D68C46",
"{. c #D9934B",
"}. c #C68A57",
"|. c #D48E55",
" X c #CB9558",
".X c #D2945B",
"XX c #D89857",
"oX c #C4944E",
"OX c #E79649",
"+X c #E49C53",
"@X c #E79B58",
"#X c #E69349",
"$X c #D8A25C",
"%X c #E9A35B",
"&X c #F3A65C",
"*X c #F1A54E",
"=X c #C78D61",
"-X c #CA9865",
";X c #D39B64",
":X c #D49B6A",
">X c #D99A66",
",X c #C89975",
"<X c #D89F72",
"1X c #E39D64",
"2X c #E39F72",
"3X c #DCA36C",
"4X c #D7A468",
"5X c #DAA978",
"6X c #CBA771",
"7X c #E4A363",
"8X c #E8A869",
"9X c #F7AC67",
"0X c #FAB36C",
"qX c #E3AC74",
"wX c #ECAD72",
"eX c #E5AA77",
"rX c #EBB37B",
"tX c #EBBB7D",
"yX c #E8B276",
"uX c #F4B473",
"iX c #F4BA7C",
"pX c #F9B978",
"aX c #EAB16F",
"sX c #FAC37D",
"dX c #EEC07D",
"fX c #BD9D86",
"gX c #DEB888",
"hX c #DAAD86",
"jX c #E8B987",
"kX c #F2BE8B",
"lX c #F5BA83",
"zX c #E4BD98",
"xX c #FCC483",
"cX c #FAC789",
"vX c #FFD28C",
"bX c #E9C497",
"nX c #F4C393",
"mX c #FDCC93",
"MX c #F7C899",
"NX c #FFD698",
"BX c #EDC28B",
"VX c #FED6A6",
"CX c #F2CCA8",
"ZX c #FFE3AA",
"AX c #FFE9C2",
/* pixels */
"z.g.k.+.#.e.l.T P.;X Xv.].[.OX&.4 ,X,XY.7 2 Y.wXpX8X@X[.#Xm.#X!.%XaXrXP O % U.G.hXY.O X X 3.4X$XXXXX",
"6.I.J.x.O.b ^.-X:X=X}.XX].[.+XM.* 1.I C y n z.k.|.8X@XR.B.#X[.#X8XNXy.5 L 5 3 w.V.3 O w.x ,.~.xXtXXX",
"J.P.P.:X=XG.P.-X3X}.}.7XXX|.v.n + R /.G.d.J.x.k.z z h.|.R.#X[.@XiXb.5.].rX_.# ] F + U.nX}.c.-X^. X;X",
"/.P.}.=X=X:Xr.-X-X;X:X:XrXwX.X4. XyX5Xc.o.4X;X>X2X1XI.z.R.I.z.eXi.c.aX@X>XkXt F q ` jXqXaX$X6XJ O O ",
"_.Y._./.=X<Xt 2 s.x.P.j.eXkXnXjXtX3X$Xc.J sX4X^.lX2XrXMX2XH.R.r.~.aX0XpXuXjXA.O q CXkXlX1XwX;XgX| o ",
").hXfX(.1.I Y Y v v Y 2.hXMXzXzX4X XoXi.x tXtXyX>XhXlXMXY.2 ..H.iXW.{.pXmXeXK.O U.VXkXmXXX}.4XjX| o ",
"w d 0 j M p 2.~ s.>.q.K._.CXbXgXNXdX$X-.-.tX5X3XeX:XjXnXC + Y.kX%XsXNX.XkXVX/.6.MXkXkXVXMXlX8X$.> o ",
"} ; + 5 Q ~ A.K.S.a.q.' % `.zXCXjXdX5XK c.4X4XjXrXjXjXG.$ ..hXlX&X%XxXMXeXkX>X2 z.jXhXMXjX X%.b._.T ",
"fX} $ l j ^ U.A.K./ 1.E # O C.zXkXmX;X^.5XqX4XcXcXkXc.J E.R 6XtX0X0XxXmXBX-X$.z n 4 v p 3 #.{.{.%X%X",
"F.w X q ] A.).C.^ w.! 5 O X X L Y.:XP.5.l.K.P.;XI.e K NXdX XJ -.sXpXyXBX,X/.5Xc.ZX.Xs.x x -.{.9X$X{.",
"F w + s V.] F.` ^ ! p i m q.1._.Y.Y.7.V o.j.^.;X#.y cXaXdXsXoX% x c.NX Xx.BX'.) bXnXNXiXpXW.b.x.{.W.",
"+ + O ; ` _ ] W l 5 u ,X,XhX5X5XhX>X=X:XqXeXrXlXoX~.sXcXdX8XvX^.X p qX~.qXZXp.F.AXMXtX7XsX%X.XXX].&.",
": % O # ] _ _ k < ; % '.=X/.2X8X2X>X>X1X>X3X3X.Xc.cXaX8XoXaXvXdXR `.NXbXNXgX) [ AXbXtXaXsX0XiXqX%X;.",
"^ ^ d 5 A Z , @ X + O 1.:XeX8X1XpXwX1X>X8XwXXXg.|.wXwX].vXaXuXcX(.p.6X6XgXbXp.w bXVXNXNXsXuXiXiX~.x ",
"m G N d 5 1 # @ g q % e l.7X1X0X8X8XwX0X0XXXv.g.aX8X8X}.wXuX7XkXjX< = 1  .(.w X '.VXjXBXnXmX0XuXp.+ ",
"i m f m k F 6 % ' p a.i.0.M.B.{.qX4X3X>Xj.z $.lXlX>X>X}.0.n X.b x l o       > - T NXbXbXBXxX4XcX] o ",
"( F ( +.$ z 9.j.}.J.].XXv.B.&XR.D.| [ w O 4 K.a.v 0 m V l.x.f.6.R R h . o   o w = S.ZXvXcXyXBXMX_ o ",
"d 7 4 C n f.M.B.W.{.{.M.h.[.pXpX| . o . % F Q $ + 5 C.A.P.l.f.f.u.) [ < .   o o l J 6XNXBXdXBXMXZ.< ",
"` ^ C >.R.[.m.B.OX&X#X[.[.@X0XlXZ.. . + m A.A.1.& 0 A.K.I.z.h.&.v.5.s.` O Z ).F.(.R t E.vXvXNXVXA.U.",
"F ` 1.P.1X[.N.!.OX&XOX@X9X&X@X>Xw.X O 0 1.e.e.A.B p q.a.J.z.h.=.b.$.5.1.+ ] CXCX6XdX^.-.^.VXjXZX) D.",
"O , / /.|.N.B.#XOXOX*X9X&X@X#Xf.4 % c G.=XG.H.S.m p a.H.z.h.m.&.;.f.n.<.4 / hXBX6XZXdX$XK -.BXbXh o ",
"X O ^ /.|.B.Q.!.*X#X@X9X9X2XR.8 $ C H.J.P.e.K.D.Q i e.H.k.f.m.*.h.M.f.9.x P ,XMXtXdXvXsXoXE.J - q < ",
"o . L U.>X[.*X#XOX@X#X1XrX}...2 4.l.I.7.G.K.A.w.^ 3 M 7.r.f.h.n.f.g.<.+.r 3 _.NXdXvX^.E.dXNXdXw u.7X",
"  . h a.>X[.[.Q.[.#X|.2X:X..i :.+.#.Y.8.A.U.V.U.0 X i 7.l.f.z.f.9.<.:.Y 3 O A.jXd.#.E.sXdXdXvXE.W.sX",
"    > ) P.XXXXW.{.R.qX<X2.3 B m b <.7.A.D.D.D.` O + % 7 +.l.l.l.e.V.( % # O P ,.#.qXvXxXsXvXoX%.8X9X",
"o . X > b g.W.].}.^.K.Q 3 X % f M :.~ V.F.Z.| q + X + 3 c T <.e.} S _ Z.# X P '.kXcX8XpXsXdXb.$X%X&X",
"> < p ) 5.6.X.y x y 5 X > , a Z 6 i d W _ s , X # 3 I a.s.,.z & S | S - . l p.t J.wXxXuX$XpXE.XX{.*X",
"^ ' G./.}.L.u.K $ O X X S { Z s k q , - . . @ q / 1.e.2.r.Y.U.' | ,   = [ ) ) R b 9.>XqXvX].i. XXX+X",
"}.Y.L.L.E.]. X^.t X > a S Z Z Z A S D , . . > ^ ~ <.4.0.P.=X(.w.w O X H S.) 3.i.5.O.z ..<XJ.u.^.aX0X",
"|.R.v.M.v.M.].P.q.O 9 { S Z Z a w , 1 = X @ w ! 9.@.X.0.I.I.1.G ' - O S.) y.#.8.K g.f.C + i.5X'.-X;X",
"B.h.*.h.m.M.].}.(.; w A A g , ; , = =     @ i 2.4.n.%.=.].I.1.C.A.y > (.d.$X X~.|.l.P.t.* 5X6XP > 5 ",
"B.*.*.m.B.R.].}.K.> s g g < , a @ , S a , w q G :.9...z X.O.U r.,.o.R  X8X$XXX9X8X1X2XC c '.9 # j P ",
"B.=.=.!.R.m.|.=XY.O 9 g g = D  .] V.! ) [ h s % + 2 c b K %.o.V n 8 z.9X[.+X&X!.0XW.lXl.r 3 p y.d.i.",
"B.h.*.m.M.v.2X:XG $ 5 ; @ , D | V.L P P J ! S X S T.K.y.c.v.X.#.+.8 $.XX[.OX0X&X0X%X1X.X7 e 2.c.^.E.",
"].R.f.f.L.}.}.H.8 e e % X # | Z.Z.N ) R [ [ < X ; D./.y.j.j.O.r.<.U 9.>X9X%X9X0X9X9X|.|.b u. X X8X%X",
"^.}.}.}.-X=XG.U M >.G m f 7 _ } [ [ ) ) p.J X # $ 0 3.i.u.9.9.H.7.:.b ~.iX7X7X7X1X@X>X%.X.].4X8XOX*X",
"l ' D.U.A./ m m m V M M q.z y % 9 { p P ) 3 & ( ( * 8 $.x.x.7.:.r.F & v /.4XrXtX8X8X>X..b.W.{.%X!.!.",
"@ @ > q 9 5 4 m V e.r.U a.V ~ 6 O < h ) p t w.r.r.1.C 8 n J.C.>.w.1.M b R s.-XyX<X>Xn @.+X[.!.#XOX*X",
"S . . X # w d B m / e.M V n <.M # X < L P ,.H.r.r.I.H.8 * :.U.r.~ 7.K.1.x T 3.,.~ C + n  X%XXXN.{.%X",
" .= . . X 9 l F N C M Q :.e.1.B < . X 5 / G.9.I.I.t.R.Y.2 * G G e.7.Y.a.,.(.) ; + O $ b x.8X8X[.v.{.",
" .@ . ; + : F F ` ( B G r.A.:.F < o X # A.G.l.l.I.R.Y.=X7 O Q A.7.7.5.j.d.s.2.9 O $ t m H.3XiXXX[.#X",
"] @ # A l q F w.( w.' ( w.F.w.F > k q % A.P.j.L.R.R.=X=X7 & C.a.4.g.k.j.y.o.) e X E w.i M l.:XrX1X&X",
"k > > l l N F F E w.D.D.Z.w.^ q d F.V.* G _.L.k.H.I.:XU.$ $ p.I 0.6.g.8.j.#.,.0 t ` Q E Q c T }.8X9X",
"{ H d 9 l E F j ` ' D.Y.C.N u 0 F.] F f 3 A./.~.L.}._.M O & p.p <.0.k.u.c.#.T e N 1.G ( Q Y z z <.8.",
"H g h l F d i l Q N w.q.I i c m I ! ^ q O B c.^.^.c.I % ; 5 ! m Y i./.J.u.K v v >.>.r.H.U ~ V b O @ ",
". - a k k q 6 i 3 f V M c U :.P I ~ d 2 e ~ t 0 K J t d l 9 < J B ^ q.3.R K y T e.V r.Y.4.n n U o < ",
"  = 1 h g A l i % m ~ V o.7.<.V C m G ` j + O R J R w.T.F.W w J h l d P v T 7 b >.t.H.9.t.@.@.4 6 W ",
"=   o < s k N m i ( 1.>.8.4.+.<.M C N $ + B y.y.E.K.U.).F.(.R 9 q k d P y v * r e.>.t...n.+.n r t I ",
"S a . = k l N B f j :.+.V ..+.( G 1.5 O ! u.~.g.E.c.^.P.}.c.' w # [ w.P J b 9 O E ( O.t.t.7.C i 3.! ",
"} W = - k j f f i m ' ( +.>.>.G G F % ; p.j.v.;.d.i.x.z.].v.d.H ; Z.S.s.A.A.] H w B +.t.+.>.r i w.! "
};
